:version 1.10
:name ASF
:units
  mass 1
  length 1
  angle deg
:documentation
  ASF file generated by Kaydara
:root
  axis xyz
  order  tx ty tz rx ry rz
  position 0 0 0
  orientation 0 0 0
:bonedata
  begin
    id 1
    name LeftUpLegDummy
    direction 1 -2.30186e-007 -8.31532e-007
    length 2.93387
    axis 0 0 0 xyz
  end
  begin
    id 2
    name LeftUpLeg
    direction -1.82929e-007 -1 -1.48925e-009
    length 17.3336
    axis -3.48766 0.00143442 -0.000521554 xyz
    dof rx ry rz
  end
  begin
    id 3
    name LeftLeg
    direction -1.82929e-007 -1 -5.23717e-011
    length 14.9995
    axis 3.68178 -0.00654042 -0.000282425 xyz
    dof rx ry rz
  end
  begin
    id 4
    name LeftFoot
    direction 8.31532e-007 -4.54534e-011 1
    length 6.74421
    axis 1.87234e-006 4.66016e-005 -5.96866e-006 xyz
    dof rx ry rz
  end
  begin
    id 5
    name LeftToes
    direction 0.00818058 -0.00485161 0.999955
    length 3.85048
    axis 1.06247e-005 4.65869e-005 -5.96999e-006 xyz
    dof rx ry rz
  end
  begin
    id 6
    name SpineDummy
    direction -5.8607e-008 0.943407 -0.331637
    length 5.93572
    axis 0 0 0 xyz
  end
  begin
    id 7
    name Spine
    direction -1.04988e-007 0.999988 0.00495137
    length 10.1015
    axis -0.001389 0.000121417 6.61666e-006 xyz
    dof rx ry rz
  end
  begin
    id 8
    name Spine1
    direction 0 0 0
    length 0
    axis -0.001389 0.00012144 6.56766e-006 xyz
    dof rx ry rz
  end
  begin
    id 9
    name RightShoulderDummy
    direction -0.98348 0.17941 -0.0240696
    length 3.59882
    axis -0.001389 0.00012144 6.56766e-006 xyz
  end
  begin
    id 10
    name RightShoulder
    direction -0.978693 0.204882 0.0135597
    length 2.70001
    axis 0.215806 0.000203631 -0.00679732 xyz
    dof rx ry rz
  end
  begin
    id 11
    name RightArm
    direction -1 3.85509e-006 8.31394e-007
    length 10.2459
    axis -23.2009 -0.134239 -0.964098 xyz
    dof rx ry rz
  end
  begin
    id 12
    name RightForeArm
    direction -1 3.85569e-006 8.3129e-007
    length 8.16799
    axis -9.92322 0.0658061 0.17887 xyz
    dof rx ry rz
  end
  begin
    id 13
    name RightHand
    direction -0.992843 -0.0414604 0.112003
    length 5.28593
    axis -0.00960638 0.00330669 -0.185225 xyz
    dof rx ry rz
  end
  begin
    id 14
    name LeftShoulder1Dummy
    direction 0.983523 0.179172 -0.0240748
    length 3.59866
    axis -0.001389 0.00012144 6.56766e-006 xyz
  end
  begin
    id 15
    name LeftShoulder1
    direction 0.978627 0.205195 0.0135605
    length 2.70019
    axis -0.001389 0.00012144 6.57583e-006 xyz
    dof rx ry rz
  end
  begin
    id 16
    name LeftArm
    direction 1 3.51895e-006 -8.60188e-007
    length 10.2459
    axis -23.1894 0.134785 0.967513 xyz
    dof rx ry rz
  end
  begin
    id 17
    name LeftForeArm
    direction 1 3.51921e-006 -7.32029e-007
    length 8.16799
    axis -9.91835 -0.0656957 -0.177789 xyz
    dof rx ry rz
  end
  begin
    id 18
    name LeftHand
    direction 0.992938 -0.0411636 0.11126
    length 5.32135
    axis -0.00960237 -0.00340661 0.185177 xyz
    dof rx ry rz
  end
  begin
    id 19
    name HEadDummy
    direction 1.01974e-006 0.999861 -0.016675
    length 2.99946
    axis -0.001389 0.00012144 6.56766e-006 xyz
  end
  begin
    id 20
    name HEad
    direction -0.0222689 0.980941 0.193023
    length 5.12695
    axis -0.001389 0.00012144 6.56766e-006 xyz
    dof rx ry rz
  end
  begin
    id 21
    name RightUpLegDummy
    direction -1 2.30186e-007 8.31532e-007
    length 2.93387
    axis 0 0 0 xyz
  end
  begin
    id 22
    name RightUpLeg
    direction -1.82966e-007 -1 1.56832e-007
    length 17.3336
    axis -3.4909 -0.000906625 0.00028951 xyz
    dof rx ry rz
  end
  begin
    id 23
    name RightLeg
    direction -1.82786e-007 -1 -1.80317e-007
    length 14.9995
    axis 3.68513 0.0193739 -0.131021 xyz
    dof rx ry rz
  end
  begin
    id 24
    name RightFoot
    direction 8.31721e-007 -4.63324e-011 1
    length 6.74421
    axis 4.81691e-005 -0.120479 -0.188785 xyz
    dof rx ry rz
  end
  begin
    id 25
    name RightToes
    direction 0.00124746 -0.014064 0.9999
    length 3.85082
    axis 0.000481921 0.542163 -0.142575 xyz
    dof rx ry rz
  end
:hierarchy
  begin
    root LeftUpLegDummy SpineDummy RightUpLegDummy
    LeftUpLegDummy LeftUpLeg
    LeftUpLeg LeftLeg
    LeftLeg LeftFoot
    LeftFoot LeftToes
    SpineDummy Spine
    Spine Spine1
    Spine1 RightShoulderDummy LeftShoulder1Dummy HEadDummy
    RightShoulderDummy RightShoulder
    RightShoulder RightArm
    RightArm RightForeArm
    RightForeArm RightHand
    LeftShoulder1Dummy LeftShoulder1
    LeftShoulder1 LeftArm
    LeftArm LeftForeArm
    LeftForeArm LeftHand
    HEadDummy HEad
    RightUpLegDummy RightUpLeg
    RightUpLeg RightLeg
    RightLeg RightFoot
    RightFoot RightToes
  end

:SAMPLES-PER-SECOND 30
:FULLY-SPECIFIED
:DEGREES
90
root  1.65929 34.5229 30.6403 5.9469 16.1519 -0.474606
LeftUpLeg  -10.9629 3.55669 3.88059
LeftLeg  12.1271 -2.76582 -0.411893
LeftFoot  2.00052 -0.00830299 -0.0859787
LeftToes  -18.2092 2.60077e-006 -1.42232e-007
Spine  0.764615 2.7798 -2.21493
Spine1  1.33223 5.66795 -4.30163
RightShoulder  0.00698926 4.84002 2.82537
RightArm  -55.0444 22.1189 40.9245
RightForeArm  58.1441 78.7545 63.5235
RightHand  2.5103 -11.5671 -24.029
LeftShoulder1  0.0299835 0.132107 -7.87892
LeftArm  -27.8624 20.5156 -66.817
LeftForeArm  35.0532 -13.5746 -2.4312
LeftHand  0.084499 2.97896 2.90877
HEad  -6.77622 -27.7714 2.91742
RightUpLeg  -7.81462 -7.31538 -2.55382
RightLeg  9.93217 0.644531 0.0719384
RightFoot  1.49373 0.00824103 0.0586786
RightToes  -32.2574 -0.159771 -0.267817
91
root  1.61889 34.5222 30.6085 5.91642 15.802 -0.44306
LeftUpLeg  -10.9749 3.72033 3.89481
LeftLeg  12.1984 -2.58719 -0.388699
LeftFoot  2.04416 -0.00846909 -0.0847182
LeftToes  -18.2832 2.60077e-006 -1.42232e-007
Spine  0.773018 2.79261 -2.23059
Spine1  1.3423 5.68185 -4.31983
RightShoulder  0.00770855 4.57265 2.80676
RightArm  -53.8431 23.0266 41.2932
RightForeArm  62.5101 78.9491 65.7262
RightHand  2.39183 -10.8728 -24.3601
LeftShoulder1  0.0305226 0.182586 -7.93682
LeftArm  -27.8347 20.0033 -66.8177
LeftForeArm  34.8408 -13.7833 -2.47026
LeftHand  0.0857425 2.90752 3.03172
HEad  -6.96778 -27.5904 3.18168
RightUpLeg  -7.79732 -7.19714 -2.54729
RightLeg  9.74034 0.902016 0.0970852
RightFoot  1.58991 0.0073412 0.0659761
RightToes  -32.2942 -0.160281 -0.267635
92
root  1.57836 34.5227 30.5779 5.8647 15.5819 -0.438605
LeftUpLeg  -10.9745 3.83024 3.93818
LeftLeg  12.2338 -2.47751 -0.373863
LeftFoot  2.09763 -0.00859435 -0.0840191
LeftToes  -18.3463 2.60077e-006 -1.42232e-007
Spine  0.79036 2.79082 -2.25147
Spine1  1.36887 5.66347 -4.34427
RightShoulder  0.00841103 4.38073 2.73659
RightArm  -52.6917 24.0291 41.493
RightForeArm  63.8824 78.9088 65.2705
RightHand  2.34529 -10.2607 -25.3012
LeftShoulder1  0.0320714 0.194705 -7.92419
LeftArm  -27.8811 19.3805 -66.8551
LeftForeArm  34.4306 -14.1123 -2.53204
LeftHand  0.086982 2.81489 3.16135
HEad  -7.21463 -27.4825 3.5128
RightUpLeg  -7.75024 -7.41248 -2.51622
RightLeg  9.54455 1.37291 0.142316
RightFoot  1.71076 0.00595249 0.0807834
RightToes  -32.4105 -0.160789 -0.267527
93
root  1.53576 34.5262 30.542 5.797 15.4355 -0.472562
LeftUpLeg  -10.937 3.89418 4.02269
LeftLeg  12.1592 -2.40353 -0.35954
LeftFoot  2.21151 -0.00862636 -0.0846968
LeftToes  -18.4355 2.60077e-006 -1.42232e-007
Spine  0.823434 2.79487 -2.26454
Spine1  1.42242 5.659 -4.35811
RightShoulder  0.00911632 4.20302 2.6676
RightArm  -51.883 25.2099 41.8387
RightForeArm  63.1242 78.7464 63.4851
RightHand  2.28062 -9.56871 -26.3676
LeftShoulder1  0.0335982 0.228194 -7.85388
LeftArm  -27.8045 18.6102 -66.9299
LeftForeArm  33.9826 -14.5256 -2.60984
LeftHand  0.0857936 2.74606 3.20025
HEad  -7.4252 -27.3934 3.77507
RightUpLeg  -7.70102 -7.61679 -2.43702
RightLeg  9.35185 1.73154 0.173254
RightFoot  1.84786 0.0046791 0.0937527
RightToes  -32.3896 -0.161297 -0.267493
94
root  1.49646 34.5316 30.5002 5.74992 15.2634 -0.497052
LeftUpLeg  -10.8927 3.95681 4.08753
LeftLeg  12.0218 -2.29794 -0.33817
LeftFoot  2.37263 -0.00844973 -0.0885451
LeftToes  -18.549 2.60077e-006 -1.42232e-007
Spine  0.85025 2.81807 -2.28151
Spine1  1.46119 5.69379 -4.38117
RightShoulder  0.00981968 4.03011 2.61486
RightArm  -51.0012 26.4374 42.3263
RightForeArm  63.602 78.6297 62.302
RightHand  2.17149 -8.81344 -27.2434
LeftShoulder1  0.0350926 0.213759 -7.81113
LeftArm  -27.4962 17.8215 -66.9517
LeftForeArm  33.5161 -15.0014 -2.69975
LeftHand  0.0829676 2.6725 3.18692
HEad  -7.63678 -27.2565 3.93135
RightUpLeg  -7.7044 -7.73051 -2.3708
RightLeg  9.20817 2.03217 0.197951
RightFoot  1.98169 0.0034269 0.106378
RightToes  -32.4243 -0.16181 -0.267532
95
root  1.46519 34.5391 30.4535 5.7648 15.1117 -0.493129
LeftUpLeg  -10.8986 4.04654 4.10413
LeftLeg  11.8528 -2.23372 -0.322019
LeftFoot  2.56538 -0.00810912 -0.094871
LeftToes  -18.6004 2.60077e-006 -1.42232e-007
Spine  0.876626 2.82546 -2.32691
Spine1  1.50293 5.69407 -4.45679
RightShoulder  0.0105255 3.83382 2.62241
RightArm  -49.9082 27.7977 42.8632
RightForeArm  65.2382 78.6179 62.1955
RightHand  2.14315 -8.5518 -27.7007
LeftShoulder1  0.0365889 0.200573 -7.73243
LeftArm  -26.9684 17.0076 -66.9525
LeftForeArm  33.0687 -15.508 -2.79587
LeftHand  0.0803866 2.57382 3.21421
HEad  -7.8975 -27.0072 4.05485
RightUpLeg  -7.7875 -7.85731 -2.33816
RightLeg  9.11207 2.33329 0.223128
RightFoot  2.11045 0.00210622 0.120086
RightToes  -32.5014 -0.162328 -0.267643
96
root  1.44124 34.5461 30.4014 5.79591 14.9371 -0.50914
LeftUpLeg  -10.9368 4.28674 4.11803
LeftLeg  11.7019 -2.28846 -0.323706
LeftFoot  2.72798 -0.00750153 -0.105276
LeftToes  -18.6525 2.60077e-006 -1.42232e-007
Spine  0.911159 2.84845 -2.37994
Spine1  1.56082 5.72859 -4.55125
RightShoulder  0.0111937 3.65527 2.58188
RightArm  -48.9554 29.2954 43.386
RightForeArm  65.8426 78.5286 61.3392
RightHand  2.1071 -8.51376 -27.3656
LeftShoulder1  0.0381212 0.202274 -7.55462
LeftArm  -26.4684 16.1554 -67.0532
LeftForeArm  32.7537 -15.9667 -2.88326
LeftHand  0.0783369 2.49582 3.21603
HEad  -8.23912 -26.655 4.26319
RightUpLeg  -7.90007 -7.93104 -2.29599
RightLeg  9.01574 2.59647 0.243733
RightFoot  2.2466 0.00078842 0.133799
RightToes  -32.5814 -0.162856 -0.267827
97
root  1.42667 34.5502 30.3475 5.80649 14.7515 -0.537229
LeftUpLeg  -10.973 4.44477 4.13219
LeftLeg  11.5993 -2.25848 -0.315353
LeftFoot  2.83465 -0.00732089 -0.108977
LeftToes  -18.6697 2.60077e-006 -1.42232e-007
Spine  0.950432 2.89606 -2.42407
Spine1  1.62286 5.81969 -4.63421
RightShoulder  0.0118033 3.51906 2.45661
RightArm  -47.9605 30.7578 43.9049
RightForeArm  65.7039 78.4074 60.2288
RightHand  2.06807 -8.38696 -27.2684
LeftShoulder1  0.0397238 0.142926 -7.44142
LeftArm  -26.0906 15.3578 -67.1377
LeftForeArm  32.5041 -16.3834 -2.96299
LeftHand  0.0772364 2.42289 3.20604
HEad  -8.57268 -26.3456 4.43349
RightUpLeg  -8.00794 -8.04525 -2.25629
RightLeg  8.94618 2.88229 0.266875
RightFoot  2.35765 -0.000638526 0.149293
RightToes  -32.5023 -0.163397 -0.268081
98
root  1.42352 34.5561 30.295 5.81741 14.6167 -0.581611
LeftUpLeg  -10.9905 4.4512 4.15073
LeftLeg  11.4461 -2.12967 -0.291632
LeftFoot  2.96564 -0.00726356 -0.110692
LeftToes  -18.6341 2.60077e-006 -1.42232e-007
Spine  0.997886 2.94954 -2.48846
Spine1  1.6978 5.92715 -4.75988
RightShoulder  0.0123402 3.53995 2.3737
RightArm  -46.8242 31.8705 44.1063
RightForeArm  66.0457 78.2931 59.2362
RightHand  1.8341 -7.25534 -27.9452
LeftShoulder1  0.0414309 0.0493731 -7.35792
LeftArm  -25.6028 14.5588 -67.1491
LeftForeArm  32.1461 -16.7145 -3.02669
LeftHand  0.0768878 2.38018 3.24527
HEad  -8.82191 -26.0241 4.63249
RightUpLeg  -8.1047 -8.1621 -2.21789
RightLeg  8.87312 3.13844 0.286429
RightFoot  2.49122 -0.00215871 0.166351
RightToes  -32.5182 -0.163954 -0.268405
99
root  1.43636 34.5599 30.2475 5.84423 14.525 -0.647079
LeftUpLeg  -11.0338 4.5004 4.16405
LeftLeg  11.324 -2.09246 -0.28201
LeftFoot  3.03815 -0.00724083 -0.111803
LeftToes  -18.6172 2.60077e-006 -1.42232e-007
Spine  1.04007 3.0224 -2.56605
Spine1  1.77005 6.06564 -4.90171
RightShoulder  0.012855 3.45498 2.33282
RightArm  -45.804 32.8876 44.0522
RightForeArm  67.0334 78.2201 58.6264
RightHand  1.65983 -6.49197 -28.2588
LeftShoulder1  0.0434125 -0.0336864 -7.20687
LeftArm  -25.2055 13.7224 -67.2448
LeftForeArm  32.0435 -16.8589 -3.05451
LeftHand  0.0767792 2.31878 3.2661
HEad  -8.96969 -25.738 4.81917
RightUpLeg  -8.21852 -8.26362 -2.17548
RightLeg  8.82762 3.31719 0.300001
RightFoot  2.63445 -0.00352573 0.181182
RightToes  -32.5913 -0.164529 -0.268799
100
root  1.4546 34.5614 30.2022 5.84529 14.4122 -0.733126
LeftUpLeg  -11.0706 4.54145 4.19574
LeftLeg  11.2537 -2.03492 -0.271743
LeftFoot  3.06895 -0.00724954 -0.112358
LeftToes  -18.6624 2.60077e-006 -1.42232e-007
Spine  1.0713 3.09786 -2.6433
Spine1  1.82299 6.20941 -5.0435
RightShoulder  0.013307 3.3154 2.22122
RightArm  -45.4389 34.0989 44.0422
RightForeArm  65.1283 77.8543 55.8096
RightHand  1.55905 -6.24236 -27.6231
LeftShoulder1  0.0457044 -0.0696582 -7.01273
LeftArm  -24.9679 13.0292 -67.3997
LeftForeArm  32.019 -16.9574 -3.07348
LeftHand  0.0758989 2.33616 3.22696
HEad  -9.05343 -25.3963 4.93024
RightUpLeg  -8.31686 -8.00269 -2.12726
RightLeg  8.80076 3.16362 0.284689
RightFoot  2.76477 -0.00384411 0.179917
RightToes  -32.7142 -0.165125 -0.269262
101
root  1.47821 34.5594 30.154 5.78025 14.4451 -0.81027
LeftUpLeg  -11.1086 4.45224 4.21551
LeftLeg  11.2747 -1.99206 -0.266796
LeftFoot  3.04124 -0.00728653 -0.112407
LeftToes  -18.5355 2.60077e-006 -1.42232e-007
Spine  1.12608 3.1365 -2.70717
Spine1  1.91372 6.29367 -5.1715
RightShoulder  0.0136459 3.29865 2.02111
RightArm  -45.678 35.1908 43.8145
RightForeArm  59.801 77.1615 51.34
RightHand  1.58484 -6.51579 -26.9184
LeftShoulder1  0.0481744 -0.197274 -6.87502
LeftArm  -24.8353 12.5585 -67.4872
LeftForeArm  31.9422 -17.071 -3.09543
LeftHand  0.0761016 2.27248 3.22723
HEad  -9.12023 -25.094 4.97388
RightUpLeg  -8.3668 -7.74551 -2.10958
RightLeg  8.86174 2.88043 0.262427
RightFoot  2.81041 -0.00349871 0.168563
RightToes  -32.5476 -0.165746 -0.269793
102
root  1.50977 34.5574 30.1076 5.69678 14.5994 -0.867863
LeftUpLeg  -11.1791 4.32857 4.20522
LeftLeg  11.3854 -2.03284 -0.276238
LeftFoot  2.99452 -0.00734867 -0.112
LeftToes  -18.4608 2.60077e-006 -1.42232e-007
Spine  1.21348 3.17483 -2.78434
Spine1  2.0691 6.37974 -5.32497
RightShoulder  0.0138999 3.32625 1.87629
RightArm  -46.7826 36.0633 43.2224
RightForeArm  52.6458 76.2407 46.5879
RightHand  1.75282 -7.49197 -25.9101
LeftShoulder1  0.0504172 -0.336508 -6.80306
LeftArm  -24.506 12.0796 -67.4583
LeftForeArm  31.8798 -17.1299 -3.10683
LeftHand  0.0757862 2.33209 3.22116
HEad  -9.25467 -24.9727 5.10781
RightUpLeg  -8.38688 -7.66249 -2.12471
RightLeg  8.95218 2.63639 0.24451
RightFoot  2.85247 -0.00323207 0.158682
RightToes  -32.7158 -0.166395 -0.270391
103
root  1.54476 34.5545 30.0589 5.62809 14.7899 -0.918486
LeftUpLeg  -11.2948 4.2822 4.17537
LeftLeg  11.537 -2.18499 -0.302712
LeftFoot  2.92237 -0.00743281 -0.111187
LeftToes  -18.2752 2.60077e-006 -1.42232e-007
Spine  1.30074 3.2307 -2.87626
Spine1  2.22374 6.50111 -5.50711
RightShoulder  0.0142018 3.41689 1.75993
RightArm  -48.8535 36.8248 42.3789
RightForeArm  44.7346 74.9095 41.2459
RightHand  1.90639 -8.36812 -25.2368
LeftShoulder1  0.0520273 -0.438422 -6.76511
LeftArm  -24.057 11.6243 -67.3407
LeftForeArm  31.8657 -17.084 -3.09798
LeftHand  0.0758903 2.28973 3.19267
HEad  -9.39774 -24.9323 5.27513
RightUpLeg  -8.45383 -7.7661 -2.14992
RightLeg  9.1272 2.54609 0.244024
RightFoot  2.8329 -0.00326689 0.153765
RightToes  -32.9372 -0.167074 -0.271853
104
root  1.58795 34.5487 30.01 5.54542 14.9286 -0.974426
LeftUpLeg  -11.4267 4.15641 4.14805
LeftLeg  11.782 -2.24307 -0.320525
LeftFoot  2.79254 -0.00761285 -0.108819
LeftToes  -18.1153 2.60077e-006 -1.42232e-007
Spine  1.36694 3.2982 -2.96896
Spine1  2.33267 6.65043 -5.69813
RightShoulder  0.014689 3.47932 1.64292
RightArm  -51.5828 38.0089 41.4086
RightForeArm  37.3724 72.6966 34.764
RightHand  1.99652 -8.50659 -25.9833
LeftShoulder1  0.0531269 -0.453443 -6.79893
LeftArm  -23.7171 11.3496 -67.1296
LeftForeArm  31.9315 -17.0398 -3.08942
LeftHand  0.0758521 2.29878 3.16829
HEad  -9.42495 -24.759 5.37537
RightUpLeg  -8.56687 -8.00403 -2.18563
RightLeg  9.4222 2.62866 0.26554
RightFoot  2.73466 -0.00372692 0.155765
RightToes  -33.1528 -0.167786 -0.273136
